<svg xmlns="http://www.w3.org/2000/svg" width="48" height="48" viewBox="0 0 48 48"><path fill="#2196F3" d="M30.793 4.186H34.793V26.228H30.793z" transform="rotate(44.992 32.795 15.209)"></path><path fill="#2196F3" d="M18 42L18 42c-3.206 0-6.219-1.248-8.485-3.515C7.248 36.219 6 33.205 6 30s1.248-6.219 3.515-8.485C11.781 19.248 14.794 18 18 18s6.219 1.248 8.485 3.515c4.68 4.679 4.68 12.292 0 16.971C24.218 40.752 21.205 42 18 42zM18 22c-2.137 0-4.146.832-5.657 2.343-3.119 3.119-3.119 8.195 0 11.314C13.854 37.168 15.862 38 18 38c2.137 0 4.146-.832 5.657-2.343 3.119-3.119 3.119-8.195 0-11.314C22.146 22.832 20.137 22 18 22zM25 6H42V10H25z"></path><path fill="#2196F3" d="M38 6H42V23H38z"></path></svg>